<?xml version="1.0" encoding="UTF-8" standalone="no" ?>
<!DOCTYPE svg PUBLIC "-//W3C//DTD SVG 1.1//EN" "http://www.w3.org/Graphics/SVG/1.1/DTD/svg11.dtd">
<svg xmlns="http://www.w3.org/2000/svg" xmlns:xlink="http://www.w3.org/1999/xlink" version="1.1" width="181" height="182" viewBox="0 0 181 182" xml:space="preserve">
<g transform="translate(90.09 90.67)" style="">
	<circle cx="0" cy="0" r="500" style="stroke: none; stroke-width: 1; stroke-dasharray: none; stroke-linecap: butt; stroke-linejoin: miter; stroke-miterlimit: 10; fill: rgb(100,182,195); fill-rule: nonzero; opacity: 1;" transform="translate(0 -0.58) scale(0.18 0.18) "/>
	<path d="M 365.927 1002.838 C 341.585 947.222 328 885.277 328 820 C 328 579.365 512.611 384 740 384 C 780.572 384 819.782 390.22 856.825 401.805 C 757.061 415.103 680 500.623 680 604 C 680 716.591 771.409 808 884 808 C 901.261 808 918.024 805.852 934.033 801.8 C 841.686 935.97 687.042 1024 512 1024 C 461.256 1024 412.227 1016.602 365.927 1002.838 Z" style="stroke: none; stroke-width: 1; stroke-dasharray: none; stroke-linecap: butt; stroke-linejoin: miter; stroke-miterlimit: 10; fill: rgb(255,255,255); fill-rule: nonzero; opacity: 1;" transform="translate(33.69 32.98) scale(0.18 0.18) translate(-631.0165, -704) " stroke-linecap="round" />
	<path d="M 137.76 710.64 L 177.12 658.8 L 177.12 658.8 Q 192.48 672.24 209.76 685.2 L 209.76 685.2 L 209.76 685.2 Q 227.04 698.16 247.68 707.76 L 247.68 707.76 L 247.68 707.76 Q 268.32 717.36 293.76 723.12 L 293.76 723.12 L 293.76 723.12 Q 319.2 728.88 349.92 728.88 L 349.92 728.88 L 349.92 728.88 Q 382.56 728.88 410.88 718.8 L 410.88 718.8 L 410.88 718.8 Q 439.2 708.72 460.32 690.48 L 460.32 690.48 L 460.32 690.48 Q 481.44 672.24 493.44 646.32 L 493.44 646.32 L 493.44 646.32 Q 505.44 620.4 505.44 588.72 L 505.44 588.72 L 505.44 588.72 Q 505.44 525.36 464.64 489.84 L 464.64 489.84 L 464.64 489.84 Q 423.84 454.32 354.72 454.32 L 354.72 454.32 L 354.72 454.32 Q 316.32 454.32 289.44 463.92 L 289.44 463.92 L 289.44 463.92 Q 262.56 473.52 229.92 491.76 L 229.92 491.76 L 187.68 464.88 L 207.84 170.16 L 554.4 170.16 L 554.4 238.32 L 277.92 238.32 L 261.6 419.76 L 261.6 419.76 Q 288.48 408.24 313.92 401.52 L 313.92 401.52 L 313.92 401.52 Q 339.36 394.8 374.88 394.8 L 374.88 394.8 L 374.88 394.8 Q 419.04 394.8 457.44 406.32 L 457.44 406.32 L 457.44 406.32 Q 495.84 417.84 524.16 441.36 L 524.16 441.36 L 524.16 441.36 Q 552.48 464.88 568.8 500.88 L 568.8 500.88 L 568.8 500.88 Q 585.12 536.88 585.12 586.8 L 585.12 586.8 L 585.12 586.8 Q 585.12 636.72 566.4 675.12 L 566.4 675.12 L 566.4 675.12 Q 547.68 713.52 516 739.92 L 516 739.92 L 516 739.92 Q 484.32 766.32 443.52 780.24 L 443.52 780.24 L 443.52 780.24 Q 402.72 794.16 358.56 794.16 L 358.56 794.16 L 358.56 794.16 Q 317.28 794.16 284.16 786.96 L 284.16 786.96 L 284.16 786.96 Q 251.04 779.76 224.64 768.24 L 224.64 768.24 L 224.64 768.24 Q 198.24 756.72 176.64 741.84 L 176.64 741.84 L 176.64 741.84 Q 155.04 726.96 137.76 710.64 L 137.76 710.64 Z" style="stroke: rgb(100,182,195); stroke-width: 25; stroke-dasharray: none; stroke-linecap: butt; stroke-linejoin: miter; stroke-miterlimit: 10; fill: rgb(255,255,255); fill-rule: nonzero; opacity: 1;" transform="translate(-29.21 1.99) scale(0.18 0.18) translate(-361.44, -482.15999999999997) " stroke-linecap="round" />
</g>
</svg>