<?xml version="1.0" encoding="UTF-8" standalone="no" ?>
<!DOCTYPE svg PUBLIC "-//W3C//DTD SVG 1.1//EN" "http://www.w3.org/Graphics/SVG/1.1/DTD/svg11.dtd">
<svg xmlns="http://www.w3.org/2000/svg" xmlns:xlink="http://www.w3.org/1999/xlink" version="1.1" width="212" height="157" viewBox="0 0 212 157" xml:space="preserve">
<g transform="translate(105.5 78.44)" style="">
	<path d="M 75 43.998 Q 75 44 75 44.5 Q 75 45 75 45.5 Q 75 46 75 47.5 Q 75 49 75 50.5 Q 75 52 75 53.5 Q 75 55 75 58.5 Q 75 62 75 65 Q 75 68 75 72 Q 75 76 75 80 Q 75 84 75.5 88 Q 76 92 76 94.5 Q 76 97 76 99.5 Q 76 102 76.5 106 Q 77 110 77 112 Q 77 114 77 116 Q 77 118 77 120.5 Q 77 123 77 125.5 Q 77 128 77 130 Q 77 132 77 133.5 Q 77 135 77 136.5 Q 77 138 77 139 Q 77 140 77 140.5 Q 77 141 77 141.5 L 77 142.002" style="stroke: rgb(0,0,0); stroke-width: 2; stroke-dasharray: none; stroke-linecap: round; stroke-linejoin: round; stroke-miterlimit: 10; fill: none; fill-rule: nonzero; opacity: 1;" transform="translate(-45.5 -4.56) translate(-76, -93) " stroke-linecap="round" />
	<path d="M 110.998 48 Q 111 48 111.5 48 Q 112 48 112 48.5 Q 112 49 112 50.5 Q 112 52 112 53 Q 112 54 111 57 Q 110 60 110 62 Q 110 64 109.5 65.5 Q 109 67 108.5 67.5 Q 108 68 108 69 Q 108 70 108 71.5 Q 108 73 107.5 73.5 Q 107 74 107 74.5 Q 107 75 107 75.5 Q 107 76 107 77 Q 107 78 107 79 Q 107 80 107 81.5 Q 107 83 107 83.5 Q 107 84 107 85 Q 107 86 107 86.5 Q 107 87 107 88 Q 107 89 107 89.5 Q 107 90 107 90.5 Q 107 91 107.5 92.5 Q 108 94 108 95 Q 108 96 108 97 Q 108 98 108 98.5 Q 108 99 108 99.5 Q 108 100 108.5 102 Q 109 104 109 105.5 Q 109 107 109.5 107.5 Q 110 108 110 109 Q 110 110 110 110.5 Q 110 111 110 111.5 Q 110 112 110 112.5 Q 110 113 110 113.5 Q 110 114 110 114.5 Q 110 115 110 115.5 Q 110 116 110 116.5 Q 110 117 110 117.5 Q 110 118 110 119.5 Q 110 121 110 121.5 Q 110 122 110 122.5 Q 110 123 110 123.5 Q 110 124 110 124.5 Q 110 125 110 125.5 Q 110 126 110 126.5 Q 110 127 110 127.5 Q 110 128 110 128.5 Q 110 129 110 129.5 Q 110 130 110 130.5 Q 110 131 110 131.5 Q 110 132 110.5 132.5 Q 111 133 111 133.5 Q 111 134 111 134.5 Q 111 135 111 135.5 Q 111 136 111 136.5 Q 111 137 111 137.5 Q 111 138 111 138.5 Q 111 139 111 139.5 Q 111 140 111.5 140 Q 112 140 112 140.5 Q 112 141 112 141.5 Q 112 142 112.5 142 L 113.002 142" style="stroke: rgb(0,0,0); stroke-width: 2; stroke-dasharray: none; stroke-linecap: round; stroke-linejoin: round; stroke-miterlimit: 10; fill: none; fill-rule: nonzero; opacity: 1;" transform="translate(-11.5 -2.56) translate(-110.001, -95) " stroke-linecap="round" />
	<path d="M 147 51.998 Q 147 52 147 52.5 Q 147 53 147 53.5 Q 147 54 147 55 Q 147 56 147 57.5 Q 147 59 147.5 59.5 Q 148 60 148 61.5 Q 148 63 148.5 65 Q 149 67 149 68.5 Q 149 70 149.5 72 Q 150 74 150 74.5 Q 150 75 150.5 76 Q 151 77 151 78.5 Q 151 80 151.5 81 Q 152 82 152 82.5 Q 152 83 152 83.5 Q 152 84 152.5 85 Q 153 86 153 88 Q 153 90 153 91 Q 153 92 153 93.5 Q 153 95 153 96 Q 153 97 153 97.5 Q 153 98 153 98.5 Q 153 99 153 99.5 Q 153 100 153 100.5 Q 153 101 153 102 Q 153 103 153 103.5 Q 153 104 153 104.5 Q 153 105 153 105.5 Q 153 106 153 106.5 Q 153 107 153 108 Q 153 109 153 109.5 Q 153 110 152.5 110.5 Q 152 111 152 112.5 Q 152 114 152 115 Q 152 116 152 117 Q 152 118 151.5 118.5 Q 151 119 151 121.5 Q 151 124 151 125.5 Q 151 127 151 127.5 Q 151 128 151 128.5 Q 151 129 150.5 129.5 Q 150 130 150 130.5 Q 150 131 150 131.5 Q 150 132 150 133.5 Q 150 135 150 136 Q 150 137 150 137.5 Q 150 138 150 138.5 Q 150 139 150 139.5 Q 150 140 150 140.5 Q 150 141 150 141.5 Q 150 142 150 142.5 Q 150 143 150 143.5 Q 150 144 150 145 L 150 146.002" style="stroke: rgb(0,0,0); stroke-width: 2; stroke-dasharray: none; stroke-linecap: round; stroke-linejoin: round; stroke-miterlimit: 10; fill: none; fill-rule: nonzero; opacity: 1;" transform="translate(28.5 1.44) translate(-150, -99) " stroke-linecap="round" />
	<path d="M 46.998 69 Q 47 69 47.5 69 Q 48 69 48.5 69 Q 49 69 49.5 69 Q 50 69 52 69 Q 54 69 55 69.5 Q 56 70 57 70.5 Q 58 71 58.5 71 Q 59 71 60.5 71 Q 62 71 64.5 72 Q 67 73 68 73 Q 69 73 70.5 73.5 Q 72 74 73.5 74.5 Q 75 75 76.5 75 Q 78 75 79.5 75.5 Q 81 76 82 76.5 Q 83 77 84 77 Q 85 77 86 77.5 Q 87 78 88.5 78 Q 90 78 92 79.5 Q 94 81 96 81.5 Q 98 82 100 83 Q 102 84 104 85 Q 106 86 107.5 86.5 Q 109 87 110 87.5 Q 111 88 113 88.5 Q 115 89 116 89.5 Q 117 90 118 90.5 Q 119 91 120.5 91 Q 122 91 122.5 91.5 Q 123 92 123.5 92 Q 124 92 125 92 Q 126 92 126.5 92 Q 127 92 127.5 92 Q 128 92 128.5 92 Q 129 92 129.5 92 Q 130 92 130.5 92 Q 131 92 131.5 92 Q 132 92 133.5 92 Q 135 92 136 92 Q 137 92 138 92 Q 139 92 139.5 92 Q 140 92 140.5 92 Q 141 92 141.5 92 Q 142 92 142.5 92 Q 143 92 143.5 92 Q 144 92 144.5 92.5 Q 145 93 145.5 93 Q 146 93 146.5 93 Q 147 93 147.5 93 Q 148 93 148.5 93 Q 149 93 150 92.5 Q 151 92 151.5 92 Q 152 92 152.5 92 Q 153 92 154 92 Q 155 92 155.5 92 Q 156 92 156.5 92 Q 157 92 157.5 92 Q 158 92 158.5 92 Q 159 92 159.5 92 Q 160 92 161 92 Q 162 92 163 92 Q 164 92 164.5 92 Q 165 92 166.5 92 Q 168 92 168.5 91.5 Q 169 91 169.5 91 Q 170 91 170.5 91 Q 171 91 171.5 91 Q 172 91 172.5 91 L 173.002 91" style="stroke: rgb(0,0,0); stroke-width: 2; stroke-dasharray: none; stroke-linecap: round; stroke-linejoin: round; stroke-miterlimit: 10; fill: none; fill-rule: nonzero; opacity: 1;" transform="translate(-11.5 -16.56) translate(-110, -81) " stroke-linecap="round" />
	<path d="M 51.998 106 Q 52 106 52.5 106 Q 53 106 53.5 106 Q 54 106 54.5 106 Q 55 106 55.5 106 Q 56 106 56.5 106 Q 57 106 57.5 106 Q 58 106 59 106 Q 60 106 61.5 106 Q 63 106 66 106 Q 69 106 71 106 Q 73 106 75 106 Q 77 106 79.5 106 Q 82 106 84 106 Q 86 106 88.5 106.5 Q 91 107 92.5 107.5 Q 94 108 95 108 Q 96 108 96.5 108 Q 97 108 98.5 108 Q 100 108 100.5 108.5 Q 101 109 102 109 Q 103 109 104.5 109 Q 106 109 107 109 Q 108 109 109 109.5 Q 110 110 112 110.5 Q 114 111 115.5 111 Q 117 111 117.5 111 Q 118 111 118.5 111 Q 119 111 121 111 Q 123 111 124 111.5 Q 125 112 126.5 112 Q 128 112 129.5 112.5 Q 131 113 132 113.5 Q 133 114 133.5 114 Q 134 114 135 114.5 Q 136 115 137 115 Q 138 115 139 115.5 Q 140 116 141 116 Q 142 116 142.5 116 Q 143 116 143.5 116 Q 144 116 144.5 116 Q 145 116 145.5 116 Q 146 116 146.5 116.5 Q 147 117 147.5 117 Q 148 117 148.5 117 Q 149 117 149.5 117.5 Q 150 118 150.5 118 Q 151 118 151.5 118 Q 152 118 152.5 118 Q 153 118 154 118 Q 155 118 155.5 118 Q 156 118 157 118.5 Q 158 119 158.5 119 Q 159 119 159.5 119 Q 160 119 160 119.5 Q 160 120 160.5 120 Q 161 120 162 120 Q 163 120 163.5 120 Q 164 120 164.5 120 Q 165 120 165.5 120 Q 166 120 166.5 120.5 Q 167 121 167.5 121 Q 168 121 168.5 121 Q 169 121 169.5 121 Q 170 121 170.5 121 Q 171 121 171.5 121 Q 172 121 172 122 L 172 123.002" style="stroke: rgb(0,0,0); stroke-width: 2; stroke-dasharray: none; stroke-linecap: round; stroke-linejoin: round; stroke-miterlimit: 10; fill: none; fill-rule: nonzero; opacity: 1;" transform="translate(-9.5 16.94) translate(-111.999, -114.501) " stroke-linecap="round" />
	<path d="M 50.998 133 Q 51 133 51.5 133 Q 52 133 52.5 133 Q 53 133 54 133 Q 55 133 55.5 133 Q 56 133 56.5 133 Q 57 133 58 133 Q 59 133 60 133 Q 61 133 62 133 Q 63 133 64 133 Q 65 133 65.5 133 Q 66 133 67 133 Q 68 133 69.5 133 Q 71 133 73 133 Q 75 133 77 133 Q 79 133 81 133 Q 83 133 85.5 133 Q 88 133 90 133 Q 92 133 93.5 133 Q 95 133 96 133 Q 97 133 98.5 133 Q 100 133 101.5 133 Q 103 133 104.5 133 Q 106 133 107.5 133 Q 109 133 110.5 133 Q 112 133 112.5 133 Q 113 133 114 133 Q 115 133 116 133 Q 117 133 118.5 133 Q 120 133 121 133 Q 122 133 123.5 133 Q 125 133 126 133 Q 127 133 127.5 133 Q 128 133 128.5 133 Q 129 133 130 133.5 Q 131 134 132 134 Q 133 134 133.5 134.5 Q 134 135 134.5 135 Q 135 135 135.5 135.5 Q 136 136 137 136.5 Q 138 137 139 137 Q 140 137 141.5 137 Q 143 137 143.5 137 Q 144 137 145 137.5 Q 146 138 146.5 138 Q 147 138 147.5 138 Q 148 138 148.5 138.5 Q 149 139 149.5 139 Q 150 139 151 139 Q 152 139 152 139.5 Q 152 140 152.5 140 Q 153 140 154 140.5 Q 155 141 155.5 141 Q 156 141 157 141.5 Q 158 142 160 142 Q 162 142 162.5 142 Q 163 142 164 142.5 Q 165 143 165.5 143 Q 166 143 166.5 143 Q 167 143 167 143.5 Q 167 144 167.5 144 Q 168 144 168.5 144.5 Q 169 145 169.5 145 Q 170 145 170.5 145 Q 171 145 171 145.5 Q 171 146 171.5 146 Q 172 146 172.5 146 Q 173 146 173.5 146 Q 174 146 174.5 146 Q 175 146 175.5 146 L 176.002 146" style="stroke: rgb(0,0,0); stroke-width: 2; stroke-dasharray: none; stroke-linecap: round; stroke-linejoin: round; stroke-miterlimit: 10; fill: none; fill-rule: nonzero; opacity: 1;" transform="translate(-8 41.94) translate(-113.5, -139.5) " stroke-linecap="round" />
	<path d="M 53.998 151.002 Q 54 151 54.5 150.5 Q 55 150 55 149.5 Q 55 149 55 148.5 Q 55 148 55.5 147.5 Q 56 147 56 146 Q 56 145 56.5 144.5 Q 57 144 57 143.5 Q 57 143 58 142 Q 59 141 59 139.5 Q 59 138 59.5 137.5 Q 60 137 60 136.5 Q 60 136 60.5 135.5 Q 61 135 61.5 134.5 Q 62 134 63 131.5 Q 64 129 64.5 128.5 Q 65 128 65 127.5 Q 65 127 66 126 Q 67 125 67.5 124 Q 68 123 68 122.5 Q 68 122 68.5 121.5 Q 69 121 69 120.5 Q 69 120 69.5 119.5 Q 70 119 70.5 118.5 Q 71 118 71 117.5 Q 71 117 71.5 116.5 Q 72 116 72.5 115.5 Q 73 115 74 114 Q 75 113 76 112 Q 77 111 78 110.5 Q 79 110 79.5 109.5 Q 80 109 81.5 108 Q 83 107 83.5 106.5 Q 84 106 84.5 105.5 Q 85 105 86.5 104 Q 88 103 89 102.5 Q 90 102 91.5 101 Q 93 100 95.5 99 Q 98 98 99.5 97 Q 101 96 102 95.5 Q 103 95 103.5 94.5 Q 104 94 105.5 92.5 Q 107 91 108.5 90.5 Q 110 90 111.5 89 Q 113 88 114 86.5 Q 115 85 116 84 Q 117 83 117.5 82 Q 118 81 119 80.5 Q 120 80 121 79 Q 122 78 123.5 76 Q 125 74 125.5 73 Q 126 72 126.5 71.5 Q 127 71 127.5 69.5 Q 128 68 129 67 Q 130 66 131 65 Q 132 64 132.5 63 Q 133 62 134 60.5 Q 135 59 136 58 Q 137 57 138.5 56 Q 140 55 141.5 54 Q 143 53 144.5 52.5 Q 146 52 146.5 51.5 Q 147 51 147.5 50.5 Q 148 50 149.5 48.5 Q 151 47 152.5 46.5 Q 154 46 155 45.5 Q 156 45 156.5 44.5 Q 157 44 157.5 44 Q 158 44 158.5 43.5 Q 159 43 159.5 43 L 160.002 43" style="stroke: rgb(0,0,0); stroke-width: 2; stroke-dasharray: none; stroke-linecap: round; stroke-linejoin: round; stroke-miterlimit: 10; fill: none; fill-rule: nonzero; opacity: 1;" transform="translate(-14.5 -0.56) translate(-107, -97.001) " stroke-linecap="round" />
	<path d="M 57 39.998 Q 57 40 57 40.5 Q 57 41 57 42 Q 57 43 57.5 43.5 Q 58 44 58.5 44.5 Q 59 45 60 46.5 Q 61 48 62 49.5 Q 63 51 65 53 Q 67 55 69 57.5 Q 71 60 72.5 62.5 Q 74 65 74.5 66 Q 75 67 75.5 68.5 Q 76 70 77.5 71.5 Q 79 73 80 74 Q 81 75 81.5 76.5 Q 82 78 83.5 80 Q 85 82 87 84 Q 89 86 90 87.5 Q 91 89 92 89.5 Q 93 90 95.5 91.5 Q 98 93 99.5 94 Q 101 95 101.5 95 Q 102 95 102.5 96 Q 103 97 104 97.5 Q 105 98 106 99 Q 107 100 107.5 100.5 Q 108 101 108.5 101.5 Q 109 102 109 102.5 Q 109 103 110.5 104.5 Q 112 106 113.5 107.5 Q 115 109 116.5 110 Q 118 111 119.5 113 Q 121 115 121.5 115.5 Q 122 116 122.5 116.5 Q 123 117 123.5 118 Q 124 119 125 120 Q 126 121 126.5 122 Q 127 123 127.5 123 Q 128 123 128 123.5 Q 128 124 129 125.5 Q 130 127 131.5 128.5 Q 133 130 134.5 131 Q 136 132 137 132.5 Q 138 133 138.5 133.5 Q 139 134 140 134 Q 141 134 142 134.5 Q 143 135 143.5 135.5 Q 144 136 144.5 136.5 Q 145 137 145.5 137.5 Q 146 138 146.5 138 Q 147 138 147 138.5 Q 147 139 147.5 139 Q 148 139 148.5 139.5 Q 149 140 149.5 140 Q 150 140 151 141 Q 152 142 152.5 142 Q 153 142 153.5 142.5 Q 154 143 154.5 143 Q 155 143 155.5 143.5 Q 156 144 156.5 144.5 Q 157 145 157.5 145 Q 158 145 158.5 145.5 Q 159 146 159.5 146 Q 160 146 160.5 146.5 Q 161 147 161 147.5 Q 161 148 161.5 148 Q 162 148 162 148.5 Q 162 149 162.5 149.5 Q 163 150 163.5 151 Q 164 152 164.5 153 Q 165 154 165 154.5 Q 165 155 165.5 155 Q 166 155 166 155.5 L 166 156.002" style="stroke: rgb(0,0,0); stroke-width: 2; stroke-dasharray: none; stroke-linecap: round; stroke-linejoin: round; stroke-miterlimit: 10; fill: none; fill-rule: nonzero; opacity: 1;" transform="translate(-10 0.44) translate(-111.5, -98) " stroke-linecap="round" />
	<path d="M 23 34.002 Q 23 34 23 33.5 Q 23 33 23.5 32.5 Q 24 32 24 31.5 Q 24 31 24 30.5 Q 24 30 24 29 Q 24 28 24 27.5 Q 24 27 24 26.5 Q 24 26 24.5 25.5 Q 25 25 25 24.5 Q 25 24 25 23.5 Q 25 23 25 22.5 Q 25 22 25 21.5 Q 25 21 25 21.5 Q 25 22 25 23 Q 25 24 25 24.5 Q 25 25 25.5 25.5 Q 26 26 26 26.5 Q 26 27 26.5 27.5 Q 27 28 27.5 29 Q 28 30 28.5 30.5 Q 29 31 29 31.5 Q 29 32 29.5 32 Q 30 32 30 32.5 Q 30 33 30 33.5 Q 30 34 30 34.5 Q 30 35 30.5 35 Q 31 35 31.5 35.5 Q 32 36 32.5 36.5 Q 33 37 33 36.5 Q 33 36 33 35.5 Q 33 35 33 34.5 Q 33 34 33 33.5 Q 33 33 33 32.5 Q 33 32 33 31 Q 33 30 33 29.5 Q 33 29 32.5 28 Q 32 27 32 26.5 Q 32 26 32 25 Q 32 24 32 23.5 Q 32 23 32 22.5 Q 32 22 32 21.5 Q 32 21 32 20.5 Q 32 20 32 20.5 L 32 21.002" style="stroke: rgb(0,0,0); stroke-width: 2; stroke-dasharray: none; stroke-linecap: round; stroke-linejoin: round; stroke-miterlimit: 10; fill: none; fill-rule: nonzero; opacity: 1;" transform="translate(-93.5 -69.06) translate(-28, -28.5) " stroke-linecap="round" />
	<path d="M 36.998 23.998 Q 37 24 37.5 25 Q 38 26 38 26.5 Q 38 27 38.5 27.5 Q 39 28 39.5 28.5 Q 40 29 40 29.5 Q 40 30 40 30.5 Q 40 31 40.5 31 Q 41 31 41 31.5 Q 41 32 41 32.5 Q 41 33 41.5 33 Q 42 33 42 32.5 Q 42 32 42 31 Q 42 30 42 29.5 Q 42 29 42 28.5 Q 42 28 42 27.5 Q 42 27 42 26.5 Q 42 26 42 25.5 Q 42 25 42.5 25 Q 43 25 43 24.5 Q 43 24 43 23.5 Q 43 23 43 23.5 Q 43 24 43.5 24.5 Q 44 25 44 25.5 Q 44 26 44 27 Q 44 28 44 29 Q 44 30 44.5 30.5 Q 45 31 45 31.5 Q 45 32 45 32.5 Q 45 33 45.5 33 Q 46 33 46 33.5 Q 46 34 46 34.5 Q 46 35 47 35.5 Q 48 36 48 36.5 Q 48 37 48.5 37 Q 49 37 49 37.5 Q 49 38 49 37.5 Q 49 37 49 36.5 Q 49 36 49 35.5 Q 49 35 49 34 Q 49 33 49 32.5 Q 49 32 49.5 31 Q 50 30 50 29.5 Q 50 29 50 28.5 Q 50 28 50 27.5 Q 50 27 50 26.5 Q 50 26 50 25.5 Q 50 25 50 24.5 Q 50 24 50 23.5 Q 50 23 50.5 23 L 51.002 23" style="stroke: rgb(0,0,0); stroke-width: 2; stroke-dasharray: none; stroke-linecap: round; stroke-linejoin: round; stroke-miterlimit: 10; fill: none; fill-rule: nonzero; opacity: 1;" transform="translate(-77.5 -67.13) translate(-44, -30.4375) " stroke-linecap="round" />
	<path d="M 202.002 152 Q 202 152 201.5 152 Q 201 152 200.5 152 Q 200 152 199.5 152 Q 199 152 198.5 152 Q 198 152 197.5 152 Q 197 152 196.5 152.5 Q 196 153 196 153.5 Q 196 154 195.5 154 Q 195 154 195 154.5 Q 195 155 194.5 155 Q 194 155 193.5 155.5 Q 193 156 193 156.5 Q 193 157 193 157.5 Q 193 158 192.5 158 Q 192 158 192 158.5 Q 192 159 192 159.5 Q 192 160 192.5 160 Q 193 160 193 160.5 Q 193 161 193.5 161 Q 194 161 194.5 161 Q 195 161 195.5 161 Q 196 161 196 161.5 Q 196 162 196.5 162 Q 197 162 197 162.5 Q 197 163 197.5 163 Q 198 163 198 163.5 Q 198 164 198 164.5 Q 198 165 198.5 165 Q 199 165 199 165.5 Q 199 166 199 166.5 Q 199 167 199 167.5 Q 199 168 199 168.5 Q 199 169 198.5 169 Q 198 169 197.5 169 Q 197 169 196.5 169 Q 196 169 195.5 169 Q 195 169 194.5 169 Q 194 169 193.5 169 Q 193 169 192.5 169 Q 192 169 191.5 169 Q 191 169 190.5 169 Q 190 169 189.5 169 Q 189 169 189.5 169.5 L 190.002 170.002" style="stroke: rgb(0,0,0); stroke-width: 2; stroke-dasharray: none; stroke-linecap: round; stroke-linejoin: round; stroke-miterlimit: 10; fill: none; fill-rule: nonzero; opacity: 1;" transform="translate(74.06 63.44) translate(-195.5635, -161.001) " stroke-linecap="round" />
	<path d="M 212 154.998 Q 212 155 212 155.5 Q 212 156 212 156.5 Q 212 157 212.5 157.5 Q 213 158 213 158.5 Q 213 159 213 159.5 Q 213 160 213.5 160.5 Q 214 161 214 161.5 Q 214 162 214 162.5 Q 214 163 214 163.5 Q 214 164 214 164.5 Q 214 165 214 165.5 Q 214 166 214 166.5 Q 214 167 214.5 167 Q 215 167 216 167 Q 217 167 217.5 167 Q 218 167 218.5 167 Q 219 167 220 167.5 Q 221 168 221.5 168 Q 222 168 222.5 168 Q 223 168 223.5 168 Q 224 168 224.5 168 L 225.002 168" style="stroke: rgb(0,0,0); stroke-width: 2; stroke-dasharray: none; stroke-linecap: round; stroke-linejoin: round; stroke-miterlimit: 10; fill: none; fill-rule: nonzero; opacity: 1;" transform="translate(97 63.94) translate(-218.501, -161.499) " stroke-linecap="round" />
	<path d="M 212 152.998 Q 212 153 212 153.5 Q 212 154 212.5 154 Q 213 154 213.5 154 Q 214 154 214.5 154.5 Q 215 155 215.5 155 Q 216 155 216.5 155 Q 217 155 218 155.5 Q 219 156 219.5 156 Q 220 156 220.5 156 Q 221 156 221.5 156 Q 222 156 222.5 156 Q 223 156 223.5 156 Q 224 156 224.5 156 Q 225 156 225 155.5 Q 225 155 225.5 155 L 226.002 155" style="stroke: rgb(0,0,0); stroke-width: 2; stroke-dasharray: none; stroke-linecap: round; stroke-linejoin: round; stroke-miterlimit: 10; fill: none; fill-rule: nonzero; opacity: 1;" transform="translate(97.5 56.94) translate(-219.001, -154.499) " stroke-linecap="round" />
	<path d="M 214.998 161 Q 215 161 215.5 161 Q 216 161 216.5 161 Q 217 161 217.5 161 Q 218 161 218.5 161 Q 219 161 219.5 161 Q 220 161 220.5 161 Q 221 161 221.5 161 Q 222 161 222.5 161 L 223.002 161" style="stroke: rgb(0,0,0); stroke-width: 2; stroke-dasharray: none; stroke-linecap: round; stroke-linejoin: round; stroke-miterlimit: 10; fill: none; fill-rule: nonzero; opacity: 1;" transform="translate(97.5 63.44) translate(-219, -161) " stroke-linecap="round" />
	<path d="M 185 38.002 Q 185 38 185 37.5 Q 185 37 185 36.5 Q 185 36 185.5 35.5 Q 186 35 186 34.5 Q 186 34 186 33.5 Q 186 33 186.5 32.5 Q 187 32 187 31.5 Q 187 31 187 30.5 Q 187 30 187 29 Q 187 28 187 27.5 Q 187 27 187 26.5 Q 187 26 187 25.5 Q 187 25 187 24.5 Q 187 24 187 23.5 Q 187 23 187.5 23 Q 188 23 188 24 Q 188 25 188.5 25 Q 189 25 189 25.5 Q 189 26 189 26.5 Q 189 27 189 27.5 Q 189 28 189 28.5 Q 189 29 189 29.5 Q 189 30 189.5 30 Q 190 30 190 30.5 Q 190 31 190.5 31.5 Q 191 32 191 32.5 Q 191 33 191 33.5 Q 191 34 191 34.5 Q 191 35 191.5 35.5 Q 192 36 192.5 36 Q 193 36 193.5 36.5 Q 194 37 194 37.5 Q 194 38 194 37.5 Q 194 37 194.5 37 Q 195 37 195 36.5 Q 195 36 195 35 Q 195 34 195 33 Q 195 32 195 31.5 Q 195 31 195 30.5 Q 195 30 195 29.5 Q 195 29 195 28.5 Q 195 28 195 27.5 Q 195 27 195 26.5 Q 195 26 195 25.5 Q 195 25 195 24.5 Q 195 24 195 23.5 Q 195 23 194.5 23 L 193.998 23" style="stroke: rgb(0,0,0); stroke-width: 2; stroke-dasharray: none; stroke-linecap: round; stroke-linejoin: round; stroke-miterlimit: 10; fill: none; fill-rule: nonzero; opacity: 1;" transform="translate(68.5 -67.06) translate(-190, -30.501) " stroke-linecap="round" />
	<path d="M 205 23.998 Q 205 24 205 24.5 Q 205 25 205 25.5 Q 205 26 205 26.5 Q 205 27 205 27.5 Q 205 28 205 28.5 Q 205 29 205 29.5 Q 205 30 205 31 Q 205 32 205 33 Q 205 34 205 34.5 Q 205 35 205 35.5 Q 205 36 205 36.5 Q 205 37 205 37.5 Q 205 38 205.5 38 Q 206 38 206.5 38 Q 207 38 207.5 38 Q 208 38 208.5 38 Q 209 38 209.5 38 Q 210 38 210.5 38 Q 211 38 211.5 38 Q 212 38 212.5 38 Q 213 38 213.5 38 Q 214 38 214.5 38 L 215.002 38" style="stroke: rgb(0,0,0); stroke-width: 2; stroke-dasharray: none; stroke-linecap: round; stroke-linejoin: round; stroke-miterlimit: 10; fill: none; fill-rule: nonzero; opacity: 1;" transform="translate(88.5 -66.56) translate(-210.001, -30.999000000000002) " stroke-linecap="round" />
	<path d="M 203.998 23 Q 204 23 204.5 23 Q 205 23 205.5 23 Q 206 23 206.5 23.5 Q 207 24 207.5 24 Q 208 24 208.5 24 Q 209 24 209.5 24 Q 210 24 210.5 24 Q 211 24 211.5 24 Q 212 24 212.5 24 L 213.002 24" style="stroke: rgb(0,0,0); stroke-width: 2; stroke-dasharray: none; stroke-linecap: round; stroke-linejoin: round; stroke-miterlimit: 10; fill: none; fill-rule: nonzero; opacity: 1;" transform="translate(87 -74.06) translate(-208.5, -23.5) " stroke-linecap="round" />
	<path d="M 205.998 31 Q 206 31 206.5 31 Q 207 31 207.5 31 Q 208 31 208.5 31 Q 209 31 209.5 31 Q 210 31 210.5 31 Q 211 31 211.5 31 Q 212 31 212.5 31 L 213.002 31" style="stroke: rgb(0,0,0); stroke-width: 2; stroke-dasharray: none; stroke-linecap: round; stroke-linejoin: round; stroke-miterlimit: 10; fill: none; fill-rule: nonzero; opacity: 1;" transform="translate(88 -66.56) translate(-209.5, -31) " stroke-linecap="round" />
	<path d="M 34.002 162 Q 34 162 33.5 162 Q 33 162 32.5 162 Q 32 162 31.5 162 Q 31 162 30.5 161.5 Q 30 161 29.5 161 Q 29 161 28.5 161 Q 28 161 27 160.5 Q 26 160 25.5 160 Q 25 160 24.5 160 Q 24 160 23.5 160 Q 23 160 22.5 160 Q 22 160 21.5 160 Q 21 160 20.5 160 Q 20 160 20 160.5 Q 20 161 20 162 Q 20 163 20 163.5 Q 20 164 20.5 164 Q 21 164 21 164.5 Q 21 165 21.5 165.5 Q 22 166 22.5 166 Q 23 166 23 166.5 Q 23 167 23.5 167 Q 24 167 24.5 167.5 Q 25 168 25.5 168.5 Q 26 169 26 169.5 Q 26 170 26.5 170 Q 27 170 27 170.5 Q 27 171 27.5 171.5 Q 28 172 28 172.5 Q 28 173 28 173.5 Q 28 174 28 174.5 Q 28 175 27.5 175 Q 27 175 26.5 175 Q 26 175 25.5 175 Q 25 175 24.5 175 Q 24 175 23.5 175 Q 23 175 22.5 175 Q 22 175 22 174.5 Q 22 174 21.5 174 Q 21 174 20.5 173.5 Q 20 173 19.5 173 Q 19 173 18.5 173 Q 18 173 17.5 173 L 16.998 173" style="stroke: rgb(0,0,0); stroke-width: 2; stroke-dasharray: none; stroke-linecap: round; stroke-linejoin: round; stroke-miterlimit: 10; fill: none; fill-rule: nonzero; opacity: 1;" transform="translate(-96 69.94) translate(-25.5, -167.5) " stroke-linecap="round" />
	<path d="M 38 164.998 Q 38 165 38 165.5 Q 38 166 38 166.5 Q 38 167 38 167.5 Q 38 168 38 168.5 Q 38 169 38 169.5 Q 38 170 38 170.5 Q 38 171 38 171.5 Q 38 172 38 172.5 Q 38 173 38 173.5 Q 38 174 38.5 174 Q 39 174 39 173.5 Q 39 173 39 172.5 Q 39 172 39.5 172 Q 40 172 40 171.5 Q 40 171 40 170.5 Q 40 170 40.5 169.5 Q 41 169 41 168.5 Q 41 168 41.5 168 Q 42 168 42 167.5 Q 42 167 42 167.5 Q 42 168 42 168.5 Q 42 169 42.5 169 Q 43 169 43 169.5 Q 43 170 43 170.5 Q 43 171 43.5 171 Q 44 171 44 171.5 Q 44 172 44.5 172 Q 45 172 45 172.5 Q 45 173 45.5 173 Q 46 173 46.5 173 Q 47 173 47 173.5 Q 47 174 47.5 174 Q 48 174 48 174.5 Q 48 175 48.5 175 Q 49 175 49 174.5 Q 49 174 49 173.5 Q 49 173 49 172.5 Q 49 172 49 171.5 Q 49 171 49 170.5 Q 49 170 49 169.5 Q 49 169 49 168.5 Q 49 168 49.5 167.5 Q 50 167 50 166.5 Q 50 166 50 165.5 L 50 164.998" style="stroke: rgb(0,0,0); stroke-width: 2; stroke-dasharray: none; stroke-linecap: round; stroke-linejoin: round; stroke-miterlimit: 10; fill: none; fill-rule: nonzero; opacity: 1;" transform="translate(-77.5 72.44) translate(-44, -169.999) " stroke-linecap="round" />
</g>
</svg>