<?xml version="1.0" encoding="UTF-8" standalone="no" ?>
<!DOCTYPE svg PUBLIC "-//W3C//DTD SVG 1.1//EN" "http://www.w3.org/Graphics/SVG/1.1/DTD/svg11.dtd">
<svg xmlns="http://www.w3.org/2000/svg" xmlns:xlink="http://www.w3.org/1999/xlink" version="1.1" width="235" height="208" viewBox="0 0 235 208" xml:space="preserve">
<g transform="translate(117.5 104)" style="">
	<path d="M a a L a a" style="stroke: rgb(0,0,0); stroke-width: 2; stroke-dasharray: none; stroke-linecap: round; stroke-linejoin: round; stroke-miterlimit: 10; fill: none; fill-rule: nonzero; opacity: 1;" transform="translate(-116.5 -103) translate(0, 0) " stroke-linecap="round" />
	<path d="M a a L a a" style="stroke: rgb(0,0,0); stroke-width: 2; stroke-dasharray: none; stroke-linecap: round; stroke-linejoin: round; stroke-miterlimit: 10; fill: none; fill-rule: nonzero; opacity: 1;" transform="translate(-116.5 -103) translate(0, 0) " stroke-linecap="round" />
	<path d="M a a L a a" style="stroke: rgb(0,0,0); stroke-width: 2; stroke-dasharray: none; stroke-linecap: round; stroke-linejoin: round; stroke-miterlimit: 10; fill: none; fill-rule: nonzero; opacity: 1;" transform="translate(-116.5 -103) translate(0, 0) " stroke-linecap="round" />
	<path d="M a a L a a" style="stroke: rgb(0,0,0); stroke-width: 2; stroke-dasharray: none; stroke-linecap: round; stroke-linejoin: round; stroke-miterlimit: 10; fill: none; fill-rule: nonzero; opacity: 1;" transform="translate(-116.5 -103) translate(0, 0) " stroke-linecap="round" />
	<path d="M a a L a a" style="stroke: rgb(0,0,0); stroke-width: 2; stroke-dasharray: none; stroke-linecap: round; stroke-linejoin: round; stroke-miterlimit: 10; fill: none; fill-rule: nonzero; opacity: 1;" transform="translate(-116.5 -103) translate(0, 0) " stroke-linecap="round" />
	<path d="M a a L a a" style="stroke: rgb(0,0,0); stroke-width: 2; stroke-dasharray: none; stroke-linecap: round; stroke-linejoin: round; stroke-miterlimit: 10; fill: none; fill-rule: nonzero; opacity: 1;" transform="translate(-116.5 -103) translate(0, 0) " stroke-linecap="round" />
	<rect x="-28.5" y="-25" rx="0" ry="0" width="57" height="50" style="stroke: none; stroke-width: 1; stroke-dasharray: none; stroke-linecap: butt; stroke-linejoin: miter; stroke-miterlimit: 10; fill: rgb(230,230,230); fill-rule: nonzero; opacity: 1;" transform="translate(-67.5 -59.5)"/>
	<rect x="-31" y="-24.5" rx="0" ry="0" width="62" height="49" style="stroke: none; stroke-width: 1; stroke-dasharray: none; stroke-linecap: butt; stroke-linejoin: miter; stroke-miterlimit: 10; fill: rgb(230,230,230); fill-rule: nonzero; opacity: 1;" transform="translate(2 -57)"/>
	<rect x="-36.5" y="-23" rx="0" ry="0" width="73" height="46" style="stroke: none; stroke-width: 1; stroke-dasharray: none; stroke-linecap: butt; stroke-linejoin: miter; stroke-miterlimit: 10; fill: rgb(230,230,230); fill-rule: nonzero; opacity: 1;" transform="translate(79.5 -52.5)"/>
	<rect x="-27.5" y="-25.5" rx="0" ry="0" width="55" height="51" style="stroke: none; stroke-width: 1; stroke-dasharray: none; stroke-linecap: butt; stroke-linejoin: miter; stroke-miterlimit: 10; fill: rgb(230,230,230); fill-rule: nonzero; opacity: 1;" transform="translate(-64.5 10)"/>
	<rect x="-28.5" y="-26" rx="0" ry="0" width="57" height="52" style="stroke: none; stroke-width: 1; stroke-dasharray: none; stroke-linecap: butt; stroke-linejoin: miter; stroke-miterlimit: 10; fill: rgb(230,230,230); fill-rule: nonzero; opacity: 1;" transform="translate(-0.5 10.5)"/>
	<rect x="-37" y="-27" rx="0" ry="0" width="74" height="54" style="stroke: none; stroke-width: 1; stroke-dasharray: none; stroke-linecap: butt; stroke-linejoin: miter; stroke-miterlimit: 10; fill: rgb(230,230,230); fill-rule: nonzero; opacity: 1;" transform="translate(80 11.5)"/>
	<rect x="-28.5" y="-26.5" rx="0" ry="0" width="57" height="53" style="stroke: none; stroke-width: 1; stroke-dasharray: none; stroke-linecap: butt; stroke-linejoin: miter; stroke-miterlimit: 10; fill: rgb(230,230,230); fill-rule: nonzero; opacity: 1;" transform="translate(-63.5 75)"/>
	<rect x="-31" y="-25.5" rx="0" ry="0" width="62" height="51" style="stroke: none; stroke-width: 1; stroke-dasharray: none; stroke-linecap: butt; stroke-linejoin: miter; stroke-miterlimit: 10; fill: rgb(230,230,230); fill-rule: nonzero; opacity: 1;" transform="translate(2 77)"/>
	<rect x="-34" y="-26.5" rx="0" ry="0" width="68" height="53" style="stroke: none; stroke-width: 1; stroke-dasharray: none; stroke-linecap: butt; stroke-linejoin: miter; stroke-miterlimit: 10; fill: rgb(230,230,230); fill-rule: nonzero; opacity: 1;" transform="translate(80 77)"/>
	<path d="M 32 39.002 Q 32 39 32 38.5 Q 32 38 32 37.5 Q 32 37 32 36.5 Q 32 36 32 35.5 Q 32 35 32 34.5 Q 32 34 32.5 33.5 Q 33 33 33 32.5 Q 33 32 33 31.5 Q 33 31 33.5 31 Q 34 31 34.5 30.5 Q 35 30 36 29.5 Q 37 29 38.5 28.5 Q 40 28 40.5 27.5 Q 41 27 42 26.5 Q 43 26 44 26 Q 45 26 45 25.5 Q 45 25 45.5 25 Q 46 25 46.5 25 Q 47 25 47.5 25 Q 48 25 48 25.5 Q 48 26 48 26.5 Q 48 27 48 27.5 Q 48 28 47.5 28.5 Q 47 29 47 29.5 Q 47 30 46.5 30.5 Q 46 31 46 31.5 Q 46 32 46 32.5 Q 46 33 45.5 33.5 Q 45 34 45 34.5 Q 45 35 45 35.5 Q 45 36 45 36.5 Q 45 37 44.5 37.5 Q 44 38 44 38.5 Q 44 39 44 39.5 Q 44 40 44 40.5 Q 44 41 44 41.5 Q 44 42 44 43 Q 44 44 44 44.5 Q 44 45 44 45.5 Q 44 46 44 46.5 Q 44 47 43.5 47.5 Q 43 48 43 48.5 Q 43 49 43 49.5 Q 43 50 43 50.5 Q 43 51 43 51.5 Q 43 52 42.5 52.5 Q 42 53 42 53.5 Q 42 54 42 54.5 Q 42 55 42 55.5 Q 42 56 41.5 56 L 40.998 56" style="stroke: rgb(0,0,0); stroke-width: 2; stroke-dasharray: none; stroke-linecap: round; stroke-linejoin: round; stroke-miterlimit: 10; fill: none; fill-rule: nonzero; opacity: 1;" transform="translate(-76.5 -62.5) translate(-40, -40.5) " stroke-linecap="round" />
	<path d="M 108 33.002 Q 108 33 108 32.5 Q 108 32 108.5 32 Q 109 32 109.5 32 Q 110 32 110.5 32 Q 111 32 111.5 32 Q 112 32 112 32.5 Q 112 33 113 33.5 Q 114 34 114 34.5 Q 114 35 114.5 35 Q 115 35 116.5 35.5 Q 118 36 119 36.5 Q 120 37 120.5 37 Q 121 37 122 37.5 Q 123 38 123.5 38 Q 124 38 124 38.5 Q 124 39 124.5 39 Q 125 39 125 39.5 Q 125 40 125 40.5 Q 125 41 125 41.5 Q 125 42 125 42.5 Q 125 43 125 43.5 Q 125 44 125 44.5 Q 125 45 124.5 45 Q 124 45 123.5 45.5 Q 123 46 123 46.5 Q 123 47 122.5 47 Q 122 47 121.5 47.5 Q 121 48 120.5 48 Q 120 48 119.5 48 Q 119 48 118 49 Q 117 50 116.5 50 Q 116 50 115.5 50.5 Q 115 51 113.5 51.5 Q 112 52 111 52.5 Q 110 53 109.5 53.5 Q 109 54 108 54.5 Q 107 55 106.5 55.5 Q 106 56 105.5 56.5 Q 105 57 104.5 57 Q 104 57 104 57.5 Q 104 58 103.5 58.5 Q 103 59 103.5 59 Q 104 59 104.5 59 Q 105 59 105.5 58.5 Q 106 58 106.5 58 Q 107 58 107.5 58 Q 108 58 108.5 58 Q 109 58 109.5 58 Q 110 58 110.5 58 Q 111 58 112 58 Q 113 58 113.5 58 Q 114 58 114.5 58 Q 115 58 115.5 58 Q 116 58 116 58.5 Q 116 59 116.5 59 Q 117 59 117.5 59 Q 118 59 118.5 59.5 Q 119 60 119.5 60 Q 120 60 120.5 60 L 121.002 60" style="stroke: rgb(0,0,0); stroke-width: 2; stroke-dasharray: none; stroke-linecap: round; stroke-linejoin: round; stroke-miterlimit: 10; fill: none; fill-rule: nonzero; opacity: 1;" transform="translate(-2.44 -57) translate(-114.0625, -46) " stroke-linecap="round" />
	<path d="M 184.998 40 Q 185 40 185.5 40 Q 186 40 186.5 40 Q 187 40 187.5 40.5 Q 188 41 188.5 41 Q 189 41 189.5 41.5 Q 190 42 191 42 Q 192 42 192.5 42.5 Q 193 43 194 43 Q 195 43 196 43.5 Q 197 44 197.5 44 Q 198 44 199 44.5 Q 200 45 201 45 Q 202 45 203 45.5 Q 204 46 204.5 46 Q 205 46 205.5 46.5 Q 206 47 205.5 47.5 Q 205 48 204 48.5 Q 203 49 202.5 49 Q 202 49 201 49 Q 200 49 199 49 Q 198 49 197 49 Q 196 49 195.5 49 Q 195 49 194.5 49 Q 194 49 193.5 49 Q 193 49 192.5 49 Q 192 49 191.5 49 Q 191 49 191 49.5 Q 191 50 192 50 Q 193 50 193.5 50.5 Q 194 51 194.5 51 Q 195 51 195.5 51 Q 196 51 196.5 51.5 Q 197 52 197.5 52 Q 198 52 198.5 52 Q 199 52 199.5 52 Q 200 52 200.5 52.5 Q 201 53 201.5 53 Q 202 53 202 53.5 Q 202 54 202 54.5 Q 202 55 202 55.5 Q 202 56 202 56.5 Q 202 57 202 57.5 Q 202 58 201.5 58.5 Q 201 59 200.5 59.5 Q 200 60 199.5 60 Q 199 60 198.5 60.5 Q 198 61 197.5 61 Q 197 61 196.5 61 Q 196 61 195 61 Q 194 61 193 61 Q 192 61 191.5 61 Q 191 61 190 61 Q 189 61 188.5 61 Q 188 61 187.5 61 Q 187 61 186.5 61 Q 186 61 185.5 61 Q 185 61 184.5 61 Q 184 61 183.5 61 L 182.998 61" style="stroke: rgb(0,0,0); stroke-width: 2; stroke-dasharray: none; stroke-linecap: round; stroke-linejoin: round; stroke-miterlimit: 10; fill: none; fill-rule: nonzero; opacity: 1;" transform="translate(77.94 -52.5) translate(-194.4365, -50.5) " stroke-linecap="round" />
	<path d="M 44 96.998 Q 44 97 44 97.5 Q 44 98 44 98.5 Q 44 99 44 99.5 Q 44 100 44 101 Q 44 102 44 102.5 Q 44 103 44 103.5 Q 44 104 44 104.5 Q 44 105 44 105.5 Q 44 106 44 106.5 Q 44 107 44 107.5 Q 44 108 44 108.5 Q 44 109 44.5 109 Q 45 109 45.5 109 Q 46 109 46 108.5 Q 46 108 46.5 108 Q 47 108 47.5 108 Q 48 108 48.5 108 Q 49 108 49.5 108 Q 50 108 50 108.5 Q 50 109 50.5 109 Q 51 109 51 109.5 Q 51 110 51.5 110 Q 52 110 52 110.5 Q 52 111 52.5 111 Q 53 111 53.5 111 Q 54 111 54.5 111 Q 55 111 55 110.5 Q 55 110 55.5 110 Q 56 110 56 109.5 Q 56 109 56 108.5 Q 56 108 56 107 Q 56 106 56 105 Q 56 104 56 103.5 Q 56 103 56 102.5 Q 56 102 56 101.5 Q 56 101 55.5 101 Q 55 101 55 100.5 Q 55 100 55 100.5 Q 55 101 55 101.5 Q 55 102 55 103 Q 55 104 55 105 Q 55 106 55 107 Q 55 108 55 108.5 Q 55 109 55 109.5 Q 55 110 55 110.5 Q 55 111 55 111.5 Q 55 112 54.5 113 Q 54 114 54 114.5 Q 54 115 54 115.5 Q 54 116 54 116.5 Q 54 117 53.5 117.5 Q 53 118 53 118.5 Q 53 119 53 119.5 Q 53 120 53 120.5 Q 53 121 53 121.5 Q 53 122 53 122.5 Q 53 123 53 123.5 Q 53 124 53 124.5 Q 53 125 52.5 125 Q 52 125 52 125.5 Q 52 126 52 126.5 L 52 127.002" style="stroke: rgb(0,0,0); stroke-width: 2; stroke-dasharray: none; stroke-linecap: round; stroke-linejoin: round; stroke-miterlimit: 10; fill: none; fill-rule: nonzero; opacity: 1;" transform="translate(-66.5 9) translate(-50, -112) " stroke-linecap="round" />
	<path d="M 98 101.998 Q 98 102 98 102.5 Q 98 103 98 103.5 Q 98 104 98 104.5 Q 98 105 98 105.5 Q 98 106 98 106.5 Q 98 107 98.5 107 Q 99 107 99 107.5 Q 99 108 99 108.5 Q 99 109 99 109.5 Q 99 110 99.5 110.5 Q 100 111 100.5 111 Q 101 111 101 110.5 Q 101 110 101.5 110 Q 102 110 102.5 110 Q 103 110 103.5 109.5 Q 104 109 104.5 109 Q 105 109 105.5 109 Q 106 109 106.5 109 Q 107 109 108 109.5 Q 109 110 109.5 110.5 Q 110 111 110.5 111.5 Q 111 112 111.5 112.5 Q 112 113 112 113.5 Q 112 114 112 114.5 Q 112 115 112.5 115 Q 113 115 113 115.5 Q 113 116 113 116.5 Q 113 117 113.5 117.5 Q 114 118 114 118.5 Q 114 119 114 119.5 Q 114 120 114 120.5 Q 114 121 114 121.5 Q 114 122 114 122.5 Q 114 123 114 123.5 Q 114 124 113.5 124 Q 113 124 112.5 124.5 Q 112 125 111 125 Q 110 125 109.5 125 Q 109 125 108.5 125 Q 108 125 108 124.5 Q 108 124 107.5 124 Q 107 124 107 123.5 Q 107 123 106.5 123 Q 106 123 105 123 Q 104 123 103.5 122.5 Q 103 122 101.5 122 Q 100 122 99 122 Q 98 122 97.5 122 L 96.998 122" style="stroke: rgb(0,0,0); stroke-width: 2; stroke-dasharray: none; stroke-linecap: round; stroke-linejoin: round; stroke-miterlimit: 10; fill: none; fill-rule: nonzero; opacity: 1;" transform="translate(-11 10.5) translate(-105.499, -113.499) " stroke-linecap="round" />
	<path d="M 95.998 100 Q 96 100 96.5 100 Q 97 100 97.5 100 Q 98 100 98.5 100 Q 99 100 99.5 100 Q 100 100 100.5 100 Q 101 100 101.5 100 Q 102 100 102.5 100 Q 103 100 103.5 100 Q 104 100 104.5 100 Q 105 100 105.5 100 Q 106 100 106.5 100 Q 107 100 107.5 100 Q 108 100 108.5 100 Q 109 100 109.5 100 L 110.002 100" style="stroke: rgb(0,0,0); stroke-width: 2; stroke-dasharray: none; stroke-linecap: round; stroke-linejoin: round; stroke-miterlimit: 10; fill: none; fill-rule: nonzero; opacity: 1;" transform="translate(-13.5 -3) translate(-103, -100) " stroke-linecap="round" />
	<path d="M 204.002 96 Q 204 96 203.5 96 Q 203 96 201.5 96 Q 200 96 199.5 96.5 Q 199 97 198.5 97 Q 198 97 198 97.5 Q 198 98 197.5 98.5 Q 197 99 196.5 99.5 Q 196 100 196 100.5 Q 196 101 196 101.5 Q 196 102 195.5 102.5 Q 195 103 195 104 Q 195 105 194.5 106 Q 194 107 194 107.5 Q 194 108 193.5 108.5 Q 193 109 193 110 Q 193 111 192.5 112 Q 192 113 191.5 113.5 Q 191 114 191 114.5 Q 191 115 191 115.5 Q 191 116 191 116.5 Q 191 117 191 117.5 Q 191 118 191 118.5 Q 191 119 191 119.5 Q 191 120 191 120.5 Q 191 121 191 121.5 Q 191 122 191.5 122.5 Q 192 123 192 123.5 Q 192 124 192.5 124.5 Q 193 125 193.5 125 Q 194 125 194 125.5 Q 194 126 194.5 126 Q 195 126 195.5 126 Q 196 126 196.5 126 Q 197 126 197.5 126 Q 198 126 198.5 126 Q 199 126 199.5 125.5 Q 200 125 200 124.5 Q 200 124 200 123 Q 200 122 200.5 122 Q 201 122 201 121.5 Q 201 121 201 120.5 Q 201 120 201 119.5 Q 201 119 201 118.5 Q 201 118 201 117.5 Q 201 117 201 116.5 Q 201 116 201 115.5 Q 201 115 200 115 Q 199 115 198.5 115 Q 198 115 197.5 115 Q 197 115 196.5 115 Q 196 115 195.5 115 Q 195 115 194.5 115 Q 194 115 194 115.5 Q 194 116 193.5 116 Q 193 116 193 116.5 Q 193 117 193 117.5 Q 193 118 193 118.5 L 193 119.002" style="stroke: rgb(0,0,0); stroke-width: 2; stroke-dasharray: none; stroke-linecap: round; stroke-linejoin: round; stroke-miterlimit: 10; fill: none; fill-rule: nonzero; opacity: 1;" transform="translate(81 8) translate(-197.501, -111) " stroke-linecap="round" />
	<path d="M 41.998 166 Q 42 166 42.5 166 Q 43 166 43.5 166 Q 44 166 44.5 166 Q 45 166 45.5 166 Q 46 166 46.5 166 Q 47 166 48 166.5 Q 49 167 49.5 167 Q 50 167 50.5 167 Q 51 167 51.5 167.5 Q 52 168 53 168 Q 54 168 54 168.5 Q 54 169 54.5 169 Q 55 169 55.5 169 Q 56 169 56 169.5 Q 56 170 56.5 170 Q 57 170 57.5 170 Q 58 170 58 170.5 Q 58 171 58.5 171.5 Q 59 172 59 172.5 Q 59 173 59 173.5 Q 59 174 59 174.5 Q 59 175 59 175.5 Q 59 176 59 177 Q 59 178 59 179.5 Q 59 181 58.5 182 Q 58 183 58 183.5 Q 58 184 58 184.5 Q 58 185 57.5 186 Q 57 187 57 187.5 Q 57 188 57 188.5 Q 57 189 57 190 Q 57 191 56.5 191 Q 56 191 56 191.5 Q 56 192 56 192.5 Q 56 193 56 193.5 Q 56 194 55.5 194.5 Q 55 195 55 195.5 Q 55 196 54.5 196.5 Q 54 197 54 197.5 L 54 198.002" style="stroke: rgb(0,0,0); stroke-width: 2; stroke-dasharray: none; stroke-linecap: round; stroke-linejoin: round; stroke-miterlimit: 10; fill: none; fill-rule: nonzero; opacity: 1;" transform="translate(-66 79) translate(-50.498999999999995, -182.001) " stroke-linecap="round" />
	<path d="M 51.998 185 Q 52 185 52.5 185 Q 53 185 53.5 185.5 Q 54 186 54 186.5 Q 54 187 54.5 187 Q 55 187 55.5 187.5 Q 56 188 56.5 188 Q 57 188 57.5 188 Q 58 188 58.5 188 Q 59 188 59.5 188 Q 60 188 60.5 188 L 61.002 188" style="stroke: rgb(0,0,0); stroke-width: 2; stroke-dasharray: none; stroke-linecap: round; stroke-linejoin: round; stroke-miterlimit: 10; fill: none; fill-rule: nonzero; opacity: 1;" transform="translate(-60 83.5) translate(-56.5, -186.5) " stroke-linecap="round" />
	<path d="M 136.002 164 Q 136 164 135.5 164 Q 135 164 134.5 164 Q 134 164 133.5 164 Q 133 164 132.5 164 Q 132 164 131.5 164 Q 131 164 130.5 164 Q 130 164 129.5 164 Q 129 164 128.5 164 Q 128 164 127.5 164 Q 127 164 126.5 164 Q 126 164 125 164.5 Q 124 165 123.5 165 Q 123 165 123 165.5 Q 123 166 122.5 166 Q 122 166 121.5 166.5 Q 121 167 121 167.5 Q 121 168 121 168.5 Q 121 169 121 169.5 Q 121 170 121 170.5 Q 121 171 121.5 171.5 Q 122 172 122 172.5 Q 122 173 122.5 173.5 Q 123 174 123.5 174 Q 124 174 124 174.5 Q 124 175 124.5 175 Q 125 175 125.5 175 Q 126 175 126.5 175.5 Q 127 176 127.5 176 Q 128 176 129 176.5 Q 130 177 131 177.5 Q 132 178 133 178.5 Q 134 179 134 179.5 Q 134 180 134.5 180 Q 135 180 135.5 180.5 Q 136 181 136.5 182 Q 137 183 137.5 183.5 Q 138 184 138.5 185 Q 139 186 139 186.5 Q 139 187 139.5 187.5 Q 140 188 140 188.5 Q 140 189 140 189.5 Q 140 190 140 190.5 Q 140 191 140 191.5 Q 140 192 139.5 192.5 Q 139 193 138.5 193 Q 138 193 137 193 Q 136 193 134.5 193 Q 133 193 132 193 Q 131 193 130.5 193 Q 130 193 129.5 193 Q 129 193 127.5 193 Q 126 193 125 193 Q 124 193 123 192.5 Q 122 192 121 192 Q 120 192 119.5 191.5 Q 119 191 118.5 191 Q 118 191 117.5 191 Q 117 191 117 190.5 Q 117 190 116.5 190 Q 116 190 116 189.5 Q 116 189 115.5 189 Q 115 189 115 188.5 Q 115 188 115 187.5 Q 115 187 115 186.5 Q 115 186 115 185.5 Q 115 185 115 184.5 Q 115 184 115.5 183.5 Q 116 183 116.5 183 Q 117 183 117.5 183 Q 118 183 118 182.5 Q 118 182 118.5 182 Q 119 182 119.5 181.5 Q 120 181 120 180.5 Q 120 180 120.5 179.5 Q 121 179 121 178.5 Q 121 178 121.5 178 Q 122 178 122 177.5 Q 122 177 122.5 176 Q 123 175 123.5 174.5 Q 124 174 124.5 174 Q 125 174 125 173.5 Q 125 173 125.5 173 Q 126 173 126 172.5 Q 126 172 126.5 171.5 Q 127 171 127.5 171 Q 128 171 128 170.5 Q 128 170 128.5 170 Q 129 170 129 169.5 Q 129 169 129.5 168.5 Q 130 168 130.5 168 Q 131 168 131 167.5 Q 131 167 131.5 167 Q 132 167 132 166.5 Q 132 166 132 165.5 Q 132 165 132 164.5 L 132 163.998" style="stroke: rgb(0,0,0); stroke-width: 2; stroke-dasharray: none; stroke-linecap: round; stroke-linejoin: round; stroke-miterlimit: 10; fill: none; fill-rule: nonzero; opacity: 1;" transform="translate(11 75.5) translate(-127.5, -178.499) " stroke-linecap="round" />
	<path d="M 199 171.002 Q 199 171 199 170.5 Q 199 170 199 169.5 Q 199 169 199 168.5 Q 199 168 198.5 167.5 Q 198 167 197.5 166.5 Q 197 166 196.5 166 Q 196 166 194.5 165.5 Q 193 165 192.5 165 Q 192 165 191.5 165 Q 191 165 190.5 165 Q 190 165 189.5 165 Q 189 165 188.5 165 Q 188 165 187.5 165.5 Q 187 166 187 166.5 Q 187 167 186.5 167 Q 186 167 186 167.5 Q 186 168 186 168.5 Q 186 169 185.5 169 Q 185 169 185 169.5 Q 185 170 185 170.5 Q 185 171 185 171.5 Q 185 172 185 172.5 Q 185 173 185 174 Q 185 175 185.5 175.5 Q 186 176 186.5 176.5 Q 187 177 187.5 177 Q 188 177 188.5 177 Q 189 177 189.5 177 Q 190 177 190.5 177 Q 191 177 191.5 177 Q 192 177 192.5 177 Q 193 177 193.5 176.5 Q 194 176 194 175.5 Q 194 175 194 174.5 Q 194 174 194 173.5 Q 194 173 194 172.5 Q 194 172 194.5 172 Q 195 172 195 171.5 Q 195 171 195 170.5 Q 195 170 195 169.5 Q 195 169 195 168.5 Q 195 168 195 168.5 Q 195 169 195 169.5 Q 195 170 195 170.5 Q 195 171 195 171.5 Q 195 172 195 173 Q 195 174 195 174.5 Q 195 175 195 175.5 Q 195 176 195 177 Q 195 178 195 178.5 Q 195 179 195 179.5 Q 195 180 195 180.5 Q 195 181 195 181.5 Q 195 182 195 182.5 Q 195 183 195 183.5 Q 195 184 195 184.5 Q 195 185 195 185.5 Q 195 186 195 186.5 Q 195 187 195 187.5 Q 195 188 195 188.5 Q 195 189 195 189.5 Q 195 190 195.5 190 Q 196 190 196 190.5 Q 196 191 196 191.5 Q 196 192 196 192.5 Q 196 193 196 193.5 Q 196 194 196 194.5 Q 196 195 196 195.5 Q 196 196 196 196.5 L 196 197.002" style="stroke: rgb(0,0,0); stroke-width: 2; stroke-dasharray: none; stroke-linecap: round; stroke-linejoin: round; stroke-miterlimit: 10; fill: none; fill-rule: nonzero; opacity: 1;" transform="translate(75.5 78) translate(-192, -181.001) " stroke-linecap="round" />
</g>
</svg>